#!OML:ASF Y:\EmotionMaleHayes\Project 1\Capture day 1\Session 1\Male1.ASF
:FULLY-SPECIFIED
:DEGREES
66
root -28.3587 16.6824 1.64185 -46.123 85.6046 -47.2985
lowerback 9.95461 3.36693 3.26773
upperback 2.99155 4.92337 1.22718
thorax -2.28806 2.48839 -1.13045
lowerneck -21.0674 0.441726 2.14848
upperneck 20.8555 0.596918 -2.30197
head 10.1487 0.206309 -1.07696
rclavicle -1.83876e-014 8.15017e-015
rhumerus -26.5723 13.5914 -90.1887
rradius 39.073
rwrist -4.20957
rhand -8.75976 -33.8179
rfingers 7.12502
rthumb 17.1777 -63.0787
lclavicle -1.83876e-014 8.15017e-015
lhumerus -41.2973 -4.71039 89.6321
lradius 26.5614
lwrist -11.0729
lhand -10.7731 -26.7332
lfingers 7.12502
lthumb 15.239 2.68547
rfemur 10.933 -3.86034 23.0147
rtibia 8.94398
rfoot -27.114 1.21252
rtoes 7.52109
lfemur -26.3926 7.61194 -12.7182
ltibia 35.2389
lfoot -10.2127 7.02647
ltoes -0.728501
67
root -28.2901 16.6681 1.63757 -43.1645 85.1399 -44.5439
lowerback 9.92358 3.50095 3.49659
upperback 3.04224 5.12115 1.21492
thorax -2.1889 2.58969 -1.286
lowerneck -21.1066 0.487845 2.08276
upperneck 20.5709 0.656854 -2.2526
head 10.0549 0.231051 -1.03834
rclavicle -5.20816e-014 3.97569e-015
rhumerus -26.0995 14.0846 -90.1702
rradius 39.8446
rwrist -4.66001
rhand -8.39547 -33.7611
rfingers 7.12502
rthumb 17.5283 -62.991
lclavicle -5.20816e-014 3.97569e-015
lhumerus -41.4192 -4.24399 89.4154
lradius 26.2752
lwrist -11.8253
lhand -10.6479 -26.6538
lfingers 7.12502
lthumb 15.3596 2.75572
rfemur 10.8322 -3.75471 23.1176
rtibia 9.11245
rfoot -27.2223 1.65114
rtoes 7.75592
lfemur -26.892 7.88167 -12.418
ltibia 33.8096
lfoot -9.72597 7.17743
ltoes -1.63128
68
root -28.2177 16.654 1.63115 -42.0113 84.7354 -43.5309
lowerback 10.0646 3.57149 3.82056
upperback 3.02717 5.25347 1.20231
thorax -2.24534 2.65423 -1.50263
lowerneck -21.244 0.53222 2.07911
upperneck 20.5058 0.744445 -2.37864
head 10.0595 0.25363 -1.06957
rclavicle 1.10822e-014 -6.75868e-015
rhumerus -25.7277 14.7786 -90.2464
rradius 40.6046
rwrist -5.21085
rhand -9.21895 -32.8264
rfingers 7.12502
rthumb 16.7357 -62.1251
lclavicle 1.10822e-014 -6.75868e-015
lhumerus -41.6252 -3.80414 89.1846
lradius 25.9006
lwrist -12.6882
lhand -10.6395 -26.2599
lfingers 7.12502
lthumb 15.3677 3.14895
rfemur 10.9105 -3.54186 23.3397
rtibia 9.10501
rfoot -27.3159 1.70404
rtoes 7.07173
lfemur -27.2424 7.90038 -12.0466
ltibia 32.2963
lfoot -9.36477 7.31519
ltoes -2.17515
69
root -28.1394 16.6398 1.63135 -40.2101 84.4541 -41.8603
lowerback 10.0805 3.64478 3.92016
upperback 3.069 5.35878 1.14909
thorax -2.19071 2.70875 -1.62249
lowerneck -21.4173 0.579878 2.12708
upperneck 20.3666 0.813314 -2.49755
head 10.0438 0.271434 -1.10919
rclavicle -6.6742e-014 -2.14687e-014
rhumerus -25.1691 15.3839 -90.3353
rradius 41.1456
rwrist -5.891
rhand -10.711 -31.8008
rfingers 7.12502
rthumb 15.2989 -61.215
lclavicle -6.6742e-014 -2.14687e-014
lhumerus -41.8104 -3.47157 88.9526
lradius 25.5719
lwrist -13.3232
lhand -10.9656 -25.8791
lfingers 7.12502
lthumb 15.0537 3.55356
rfemur 11.1318 -3.42826 23.3793
rtibia 8.99647
rfoot -27.4109 1.7854
rtoes 6.16208
lfemur -27.5258 7.9288 -11.8468
ltibia 30.8408
lfoot -9.17158 7.2625
ltoes -1.56673
70
root -28.0521 16.6255 1.63144 -40.7649 84.5483 -42.4012
lowerback 10.1749 3.59345 4.02692
upperback 3.13765 5.30202 1.02658
thorax -2.15251 2.6836 -1.80503
lowerneck -21.4529 0.592414 2.14502
upperneck 20.0425 0.777433 -2.36765
head 9.93295 0.268579 -1.06981
rclavicle 1.74434e-014 7.15625e-015
rhumerus -24.6673 15.5822 -90.3964
rradius 41.4901
rwrist -6.51229
rhand -9.75427 -32.0553
rfingers 7.12502
rthumb 16.2203 -61.3968
lclavicle 1.74434e-014 7.15625e-015
lhumerus -42.0378 -3.25944 88.6377
lradius 25.3545
lwrist -13.7272
lhand -11.3692 -25.8953
lfingers 7.12502
lthumb 14.6648 3.56612
rfemur 11.6655 -3.51198 23.282
rtibia 8.72848
rfoot -27.6309 1.8312
rtoes 6.0386
lfemur -27.7335 7.64833 -11.8094
ltibia 29.4424
lfoot -9.13179 7.03948
ltoes -0.747769
71
root -27.9624 16.6082 1.62845 -40.2455 84.3933 -41.8141
lowerback 10.2559 3.61384 4.09371
upperback 3.28519 5.34028 1.02315
thorax -2.0348 2.70987 -1.84849
lowerneck -21.6358 0.609994 2.06059
upperneck 19.817 0.795275 -2.2888
head 9.88548 0.275765 -1.02471
rclavicle 1.83876e-015 4.37326e-015
rhumerus -24.1238 15.8643 -90.2696
rradius 41.8985
rwrist -6.79352
rhand -6.28265 -35.3036
rfingers 7.12502
rthumb 19.5606 -64.3396
lclavicle 1.83876e-015 4.37326e-015
lhumerus -42.1435 -2.74585 88.3391
lradius 25.0889
lwrist -14.3356
lhand -11.288 -25.9685
lfingers 7.12502
lthumb 14.743 3.48716
rfemur 12.1272 -3.50754 23.2243
rtibia 8.57494
rfoot -27.8436 2.12558
rtoes 6.14822
lfemur -27.7704 7.56376 -11.5673
ltibia 27.8816
lfoot -9.08938 6.88559
ltoes -0.690373
72
root -27.8814 16.5826 1.62896 -42.6578 84.4132 -44.5509
lowerback 10.1183 3.52659 4.19144
upperback 3.24142 5.23039 1.11252
thorax -2.011 2.65454 -1.79051
lowerneck -21.7934 0.646959 1.96515
upperneck 19.7062 0.895965 -2.39651
head 9.87723 0.299467 -1.03197
rclavicle -1.23743e-014 -2.0276e-014
rhumerus -23.5624 16.2517 -90.1111
rradius 42.3029
rwrist -6.77143
rhand -10.6645 -30.3471
rfingers 7.12502
rthumb 15.3436 -59.7578
lclavicle -1.23743e-014 -2.0276e-014
lhumerus -42.2924 -1.97596 88.0265
lradius 24.6489
lwrist -15.2218
lhand -11.1895 -26.0102
lfingers 7.12502
lthumb 14.8379 3.43848
rfemur 12.1902 -3.88254 23.3006
rtibia 8.39909
rfoot -27.909 2.31413
rtoes 5.86069
lfemur -28.4994 7.2914 -11.2907
ltibia 26.6159
lfoot -8.98535 6.56162
ltoes -0.527273
73
root -27.8259 16.5541 1.63976 -49.0569 84.7768 -51.4059
lowerback 10.0355 3.24339 4.22877
upperback 3.16556 4.85858 1.19924
thorax -2.07073 2.46639 -1.6806
lowerneck -21.8602 0.757286 1.92113
upperneck 19.4629 1.07098 -2.47315
head 9.80742 0.365486 -1.025
rclavicle 1.26228e-014 1.78906e-014
rhumerus -22.7742 16.7477 -89.9855
rradius 42.5955
rwrist -6.79293
rhand -10.4387 -30.1816
rfingers 7.12502
rthumb 15.5612 -59.5756
lclavicle 1.26228e-014 1.78906e-014
lhumerus -42.2227 -0.930935 87.5041
lradius 23.9866
lwrist -16.3702
lhand -11.781 -26.3088
lfingers 7.12502
lthumb 14.268 3.18106
rfemur 12.1122 -4.38411 23.5512
rtibia 8.2115
rfoot -27.991 2.03383
rtoes 5.05548
lfemur -29.7923 6.81442 -11.1891
ltibia 25.818
lfoot -8.90794 5.92451
ltoes -0.947368
74
root -27.7389 16.5359 1.64439 -48.5276 84.6743 -50.8337
lowerback 10.2966 3.29087 4.1378
upperback 3.16816 4.92857 1.22525
thorax -2.21755 2.49821 -1.62945
lowerneck -21.7439 0.779301 1.8887
upperneck 19.3155 1.11023 -2.475
head 9.73507 0.381465 -1.01373
rclavicle -1.37161e-014 2.78299e-015
rhumerus -22.3987 16.9634 -89.877
rradius 43.0679
rwrist -6.81324
rhand -10.2412 -30.2543
rfingers 7.12502
rthumb 15.7514 -59.6333
lclavicle -1.37161e-014 2.78299e-015
lhumerus -42.4427 -0.360176 87.1459
lradius 23.6681
lwrist -16.7039
lhand -11.6123 -26.5528
lfingers 7.12502
lthumb 14.4306 2.92554
rfemur 12.5852 -4.10559 23.6886
rtibia 8.05347
rfoot -28.196 1.86052
rtoes 3.98018
lfemur -29.8761 6.77132 -10.9608
ltibia 24.4051
lfoot -8.8129 5.68038
ltoes -2.13949
75
root -27.6516 16.5064 1.64421 -50.1138 84.4369 -52.6688
lowerback 10.3079 3.3447 4.48067
upperback 3.03515 5.0356 1.20602
thorax -2.32424 2.54532 -1.85662
lowerneck -21.4816 0.777809 1.90602
upperneck 19.0228 1.0769 -2.38597
head 9.58327 0.379101 -0.988597
rclavicle 8.54774e-015 1.88845e-014
rhumerus -22.159 16.7051 -89.8282
rradius 43.7525
rwrist -7.19145
rhand -6.9224 -35.5217
rfingers 7.12502
rthumb 18.9455 -64.6191
lclavicle 8.54774e-015 1.88845e-014
lhumerus -42.9066 -0.409832 86.9583
lradius 23.5642
lwrist -16.9094
lhand -10.8855 -26.4393
lfingers 7.12502
lthumb 15.1308 2.98756
rfemur 12.6594 -3.76793 24.1838
rtibia 8.06184
rfoot -28.5262 1.58321
rtoes 3.65781
lfemur -30.3988 6.60954 -10.4461
ltibia 23.2521
lfoot -8.75349 5.6224
ltoes -2.89938
76
root -27.5558 16.4874 1.64142 -50.8201 84.0902 -53.4214
lowerback 10.3729 3.35951 4.84112
upperback 3.06072 5.09709 1.20995
thorax -2.29778 2.57767 -2.0614
lowerneck -21.4138 0.814717 2.06155
upperneck 18.812 1.10828 -2.54029
head 9.4996 0.38661 -1.06255
rclavicle -1.16786e-014 -3.73715e-014
rhumerus -21.6276 16.6461 -89.7461
rradius 44.3783
rwrist -7.99214
rhand -8.84196 -33.5698
rfingers 7.12502
rthumb 17.0986 -62.8374
lclavicle -1.16786e-014 -3.73715e-014
lhumerus -43.0698 0.0974796 86.5226
lradius 23.2311
lwrist -17.5122
lhand -10.6641 -26.3362
lfingers 7.12502
lthumb 15.344 3.07451
rfemur 13.0096 -3.7521 24.4878
rtibia 8.01335
rfoot -28.7921 1.77109
rtoes 3.42265
lfemur -30.4613 6.3732 -9.80618
ltibia 21.897
lfoot -8.69813 5.69241
ltoes -3.0613
77
root -27.4577 16.4607 1.64285 -50.4534 83.5992 -53.1626
lowerback 10.3262 3.39737 5.11214
upperback 3.12619 5.1736 1.25229
thorax -2.17827 2.6212 -2.16862
lowerneck -21.4315 0.876552 2.11114
upperneck 18.5448 1.17135 -2.55926
head 9.41105 0.415658 -1.06714
rclavicle -2.96686e-014 -2.127e-014
rhumerus -20.9843 16.9025 -89.7078
rradius 44.6512
rwrist -8.3501
rhand -9.58353 -32.3389
rfingers 7.12502
rthumb 16.3847 -61.6669
lclavicle -2.96686e-014 -2.127e-014
lhumerus -43.0391 0.981825 85.8918
lradius 22.7975
lwrist -18.345
lhand -11.9872 -26.5114
lfingers 7.12502
lthumb 14.0694 2.99235
rfemur 13.3249 -3.70385 24.812
rtibia 7.89522
rfoot -28.98 2.04952
rtoes 2.60959
lfemur -30.5943 6.29829 -9.03958
ltibia 20.6753
lfoot -8.39711 5.87867
ltoes -2.86486
78
root -27.3601 16.4313 1.64319 -51.0869 83.2503 -53.9538
lowerback 10.3673 3.40705 5.39493
upperback 3.10191 5.21911 1.25437
thorax -2.19715 2.64298 -2.33105
lowerneck -21.5806 0.953451 2.2288
upperneck 18.4838 1.23822 -2.5835
head 9.41882 0.450416 -1.08527
rclavicle 1.74931e-014 1.19271e-014
rhumerus -20.4866 16.9862 -89.736
rradius 44.759
rwrist -8.22291
rhand -10.1066 -31.731
rfingers 7.12502
rthumb 15.881 -61.0998
lclavicle 1.74931e-014 1.19271e-014
lhumerus -43.2307 1.41307 85.4316
lradius 22.5905
lwrist -18.8328
lhand -11.3797 -26.4006
lfingers 7.12502
lthumb 14.6547 3.06153
rfemur 13.5963 -3.73831 25.1008
rtibia 7.74749
rfoot -29.1929 2.17202
rtoes 1.54978
lfemur -30.9065 6.09261 -8.35266
ltibia 19.7146
lfoot -8.40345 6.14055
ltoes -4.38032
79
root -27.2567 16.4034 1.63468 -49.5555 83.4737 -52.6584
lowerback 10.2874 3.40636 5.09946
upperback 3.03499 5.1773 1.15168
thorax -2.24323 2.61787 -2.26695
lowerneck -21.5606 0.999344 2.18986
upperneck 18.3637 1.29772 -2.5301
head 9.37416 0.481101 -1.05131
rclavicle 2.39039e-014 -1.8487e-014
rhumerus -20.2198 17.0921 -89.6625
rradius 45.0823
rwrist -8.07982
rhand -10.1511 -31.6758
rfingers 7.12502
rthumb 15.8381 -61.048
lclavicle 2.39039e-014 -1.8487e-014
lhumerus -43.4207 2.01548 84.9912
lradius 22.1767
lwrist -19.475
lhand -10.5496 -26.2358
lfingers 7.12502
lthumb 15.4543 3.16647
rfemur 13.8562 -4.13794 24.4901
rtibia 7.56395
rfoot -29.381 2.35607
rtoes -0.370605
lfemur -31.3768 5.50615 -8.46403
ltibia 18.9543
lfoot -8.65012 6.29146
ltoes -4.53455
80
root -27.1465 16.3737 1.62704 -46.0074 83.6772 -49.3912
lowerback 10.0212 3.47277 4.59092
upperback 3.04223 5.19076 1.05158
thorax -2.12504 2.62642 -2.07095
lowerneck -21.721 1.01966 2.13626
upperneck 18.2832 1.33971 -2.54784
head 9.37528 0.492682 -1.04243
rclavicle -1.36664e-014 -2.72335e-014
rhumerus -19.8958 17.2458 -89.5443
rradius 45.4003
rwrist -7.94234
rhand -10.0575 -31.3199
rfingers 7.12502
rthumb 15.9283 -60.6849
lclavicle -1.36664e-014 -2.72335e-014
lhumerus -43.3501 3.07744 84.3392
lradius 21.5243
lwrist -20.5464
lhand -10.2178 -26.2898
lfingers 7.12502
lthumb 15.7739 3.0875
rfemur 14.0615 -4.45598 23.698
rtibia 7.49961
rfoot -29.551 2.74804
rtoes -1.61321
lfemur -31.7194 4.62491 -8.57895
ltibia 18.0808
lfoot -8.89349 6.84722
ltoes -5.31741
